<?xml version="1.0" encoding="utf-8"?>
<!-- Generator: Adobe Illustrator 26.4.1, SVG Export Plug-In . SVG Version: 6.00 Build 0)  -->
<svg version="1.1"
	 id="svg2" xmlns:svg="http://www.w3.org/2000/svg" xmlns:cc="http://creativecommons.org/ns#" xmlns:dc="http://purl.org/dc/elements/1.1/" xmlns:rdf="http://www.w3.org/1999/02/22-rdf-syntax-ns#"
	 xmlns="http://www.w3.org/2000/svg" xmlns:xlink="http://www.w3.org/1999/xlink" x="0px" y="0px" viewBox="0 0 1197.1 406.6"
	 style="enable-background:new 0 0 1197.1 406.6;" xml:space="preserve">
<style type="text/css">
	.st0{clip-path:url(#SVGID_00000023980885395418410030000012393480067165637299_);}
	.st1{fill:#00273E;}
	.st2{fill:#EF373C;}
</style>
<g id="g10" transform="matrix(1.3333333,0,0,-1.3333333,0,324.552)">
	<g id="g12">
		<g>
			<defs>
				<rect id="SVGID_1_" x="-28.9" y="-71.3" width="955.6" height="324.6"/>
			</defs>
			<clipPath id="SVGID_00000160910099074147521970000007626071423924192446_">
				<use xlink:href="#SVGID_1_"  style="overflow:visible;"/>
			</clipPath>
			<g id="g14" style="clip-path:url(#SVGID_00000160910099074147521970000007626071423924192446_);">
				<g id="g20" transform="translate(383.9033,130.4341)">
					<path id="path22" class="st1" d="M90.6-30.8L88.8-41c-3.2-18.2-19-31.5-37.5-31.5H32.8l8,46c2.3,13.1,13.7,22.7,27,22.7
						C82.2-3.8,93.1-16.7,90.6-30.8 M72.8,25.1L72.8,25.1C42.9,25,17.4,3.6,12.2-25.8l-13.3-75.3h47.9c34.1,0,63.3,24.3,69.3,57.9
						l2.5,13.9C123.5-0.9,101.6,25.1,72.8,25.1"/>
				</g>
				<g id="g24" transform="translate(223.8906,60.0332)">
					<path id="path26" class="st1" d="M90.6-30.8L65.9,17.7C60,12.4,56.8,7.9,55.3,2.8l-6-33.6H20.8L42.6,92.5h28.9l-7.6-42.7
						c1.4,1,2.8,2,4.1,3C82.4,63.2,96.1,73,99.7,87.8l1.1,4.8h5c6.9,0,13.1-3.5,15.7-9.4c2.6-5.7,1.9-12.5-2.1-18.5
						c-2.6-3.9-5.7-7.8-9.2-11.6c-5-5.3-11.1-10.3-19.3-16.5l20.9-41.3c2.6-5.2,1.9-11.8-2-17.3c-3.8-5.4-10-8.8-16.2-8.8H90.6z"/>
				</g>
				<g id="g28" transform="translate(252.1245,60.0332)">
					<path id="path30" class="st1" d="M90.6-30.8l21.8,123.3h5.3c6.2,0,11.8-2.7,15.5-7c3.6-4.2,4.7-10.4,3.5-16.7l-17.6-99.7H90.6z
						"/>
				</g>
				<g id="g32" transform="translate(455.1738,57.1553)">
					<path id="path34" class="st1" d="M90.6-30.8c-13.3,0-24.7,5-32.2,14C51.3-8.3,48.6,3,50.6,14.4l14.3,81h29L79.3,13.8
						c-0.7-3.8,0.3-7.6,2.8-10.5C85-0.1,89.6-2,95.1-2c12,0,20.9,8.5,22.3,16.5l10.2,58.1c2.3,12.6,14.4,22.8,27.1,22.8h6
						l-14.4-81.6c-2-11.2-8.8-22.4-18.7-30.8C117-25.9,103.8-30.8,90.6-30.8"/>
				</g>
				<g id="g36" transform="translate(583.1318,60.0332)">
					<path id="path38" class="st1" d="M90.6-30.8L63.2,35.6L51.2-30.8l-28.7,0L44.2,92.5h14.1c9,0,16.6-4.8,19.8-12.6l22.2-54.1
						l12,66.7h28.9L123.9-6c-2.5-13.8-16.2-24.8-29.9-24.8H90.6z"/>
				</g>
				<g id="g40" transform="translate(157.2285,182.4673)">
					<path id="path42" class="st1" d="M90.6-30.8C77.3-28.2,67.1-27,57.3-27c-6.9,0-12.6-0.8-17.8-2.4c-6.2-1.9-11.1-4.4-15.4-7.7
						c-4.5-3.5-8.3-7.5-11.3-12.1C9.8-53.9,7.7-59,6.8-64.4c-3.4-19,9.3-29.2,20.5-34.5l18.2-8c9.4-4.4,9.9-9,9.3-12.6
						c-0.5-2.9-1.9-4.9-4.9-6.9c-3-2-7.2-3-12.3-3l-0.6,0c-19,0.3-31.5,12-31.6,12.1l-1.4,1.4l-5.3-7.3c-3.3-4.6-4.8-9.8-4.1-14.8
						c0.7-5.1,3.7-9.5,8.3-12.2c6.8-3.9,16.2-5.9,27.7-5.9c15.5,0,28,3.6,37.2,10.6c9.4,7.2,15.2,16.8,17.3,28.4
						c1.5,8.4,0.3,15.8-3.7,21.9c-3.6,5.6-9.3,10-18.6,14.2l-12.1,5.7c0,0-5.9,2.8-10,4.9c-4.1,2.1-6.3,7.9-1.1,13
						c3.6,3.4,9.5,4.3,19.1,4.4c3.7,0,7.2-0.3,11.7-0.8c0.9-0.1,1.8-0.2,2.6-0.2c10.4,0,18.9,7.6,20.6,17.5l0.9,5.1L90.6-30.8z"/>
				</g>
				<g id="g44" transform="translate(617.8164,60.0332)">
					<path id="path46" class="st2" d="M90.6-30.8l0.4,2.1c2.4,13.7,14.3,23.7,28.3,23.7h2.7c8,0,14.1-7.3,12.7-15.2
						c-1.1-6.2-6.5-10.7-12.7-10.7H90.6z"/>
				</g>
			</g>
		</g>
	</g>
</g>
</svg>
