<?xml version="1.0" encoding="utf-8"?>
<!-- Generator: Adobe Illustrator 26.4.1, SVG Export Plug-In . SVG Version: 6.00 Build 0)  -->
<svg version="1.1" id="Layer_1" xmlns="http://www.w3.org/2000/svg" xmlns:xlink="http://www.w3.org/1999/xlink" x="0px" y="0px"
	 viewBox="0 0 234 65" style="enable-background:new 0 0 234 65;" xml:space="preserve">
<style type="text/css">
	.st0{clip-path:url(#SVGID_00000131359808431979771140000015199465583389709480_);}
	.st1{fill:url(#SVGID_00000153704552150702961730000009541437588805351846_);}
</style>
<g>
	<defs>
		<rect id="SVGID_1_" x="30.5" y="14.5" width="173" height="36"/>
	</defs>
	<clipPath id="SVGID_00000004542276169600749910000008719474577035110551_">
		<use xlink:href="#SVGID_1_"  style="overflow:visible;"/>
	</clipPath>
	<g style="clip-path:url(#SVGID_00000004542276169600749910000008719474577035110551_);">
		
			<linearGradient id="SVGID_00000102519120060214714360000004596445619666319789_" gradientUnits="userSpaceOnUse" x1="63.2337" y1="45.3522" x2="201.3786" y2="7.3762" gradientTransform="matrix(1 0 0 -1 0 67.0329)">
			<stop  offset="0" style="stop-color:#0420FC"/>
			<stop  offset="1" style="stop-color:#03B4FC"/>
		</linearGradient>
		<path style="fill:url(#SVGID_00000102519120060214714360000004596445619666319789_);" d="M54.9,14.7c-1.2-0.6-2.1,0-2.1,1.3v25
			c0,1.3,0.8,1.9,2.1,1.3l1.6-0.7c1-0.5,1.5-1.1,1.5-2.2V17.7c0-1.1-0.5-1.8-1.5-2.2C56.5,15.5,54.9,14.7,54.9,14.7z M93,22.5
			c-2,0-4,0.9-5.3,2.2v-8.8c0-0.6-0.4-1-1-1h-3.1c-0.7,0-1,0.4-1,1v25.3c0,0.6,0.4,1,1,1h2.8c0.7,0,1-0.4,1-1v-1.1
			c1.2,1.4,3.5,2.4,5.7,2.4c4.9,0,9.1-4.4,9.1-10C102.3,26.8,98,22.5,93,22.5L93,22.5z M46.4,22.9c-0.6,0-1,0.4-1,1v1.1
			c-1.1-1.4-3.2-2.4-5.3-2.4c-5.1,0-9.5,4.3-9.5,10s4.2,9.6,9.4,9.6c2.3,0,4.2-1.1,5.2-2.2c0,4-2.1,5.8-5.8,5.8
			c-1.9,0-3.7-0.6-5.8-1.9c-0.6-0.4-1.2-0.3-1.5,0.3l-1.3,2.5c-0.3,0.6-0.2,1.1,0.4,1.5c2.6,1.7,5.7,2.5,8.3,2.5
			c6.9,0,10.7-3.7,10.7-12.2V23.8c0-0.6-0.4-1-1-1L46.4,22.9L46.4,22.9z M70.3,22.5c-5.4,0-10,4.2-10,10c0,5.8,4.5,10,10,10
			c5.4,0,10-4.2,10-10S75.8,22.5,70.3,22.5L70.3,22.5z M114.3,22.5c-5.4,0-10,4.2-10,10c0,5.8,4.5,10,10,10c5.4,0,10-4.2,10-10
			S119.8,22.5,114.3,22.5L114.3,22.5z M146.5,35.1c-0.6,0-0.9,0.3-1.2,0.7c-0.7,1.3-2,1.8-3.5,1.8c-2.6,0-4.7-2.2-4.7-5.1
			c0-3,2.1-5.1,4.7-5.1c1.5,0,2.6,0.6,3.3,1.7c0.3,0.5,0.7,0.7,1.2,0.7h3.4c0.7,0,1.1-0.4,0.9-1.1c-1.1-3.7-4.8-6.2-8.9-6.2
			c-5.3,0-9.7,4.2-9.7,10c0,5.8,4.2,10,9.7,10c4.2,0,7.9-2.5,9-6.3c0.2-0.7-0.3-1.1-0.9-1.1L146.5,35.1
			C146.5,35.2,146.5,35.1,146.5,35.1z M162.4,22.5c-5.4,0-10,4.2-10,10c0,5.8,4.5,10,10,10c5.4,0,10-4.2,10-10
			S167.9,22.5,162.4,22.5L162.4,22.5z M195.4,22.5c-2.1,0-4.2,0.9-5.7,2.8c-1.1-1.6-2.9-2.8-5.2-2.8c-2.3,0-3.9,1-4.9,2.3v-1
			c0-0.6-0.4-1-1-1h-2.8c-0.6,0-1,0.4-1,1v17.3c0,0.6,0.4,1,1,1h3.1c0.6,0,1-0.4,1-1v-9.5c0-2.7,1.3-4.3,3.5-4.3
			c2.1,0,3.2,1.4,3.2,4.2v9.7c0,0.6,0.4,1,1,1h3.1c0.6,0,1-0.4,1-1v-9.5c0-2.7,1.3-4.3,3.5-4.3s3.2,1.4,3.2,4.2v9.7c0,0.6,0.4,1,1,1
			h3.1c0.6,0,1-0.4,1-1V30.9C203.4,25.8,200.4,22.5,195.4,22.5L195.4,22.5z M40.4,37.6c-2.6,0-4.9-2.1-4.9-5.1
			c0-3.1,2.2-5.1,4.9-5.1c2.6,0,4.9,2.1,4.9,5.1C45.2,35.5,43,37.6,40.4,37.6z M70.3,37.6c-2.7,0-4.9-2.1-4.9-5.1
			c0-3,2.2-5.1,4.9-5.1c2.7,0,4.9,2.1,4.9,5.1C75.2,35.5,73,37.6,70.3,37.6z M92.4,37.6c-2.6,0-4.8-2.1-4.8-5.1s2.2-5.1,4.8-5.1
			c2.6,0,4.8,2.1,4.8,5.1C97.2,35.6,95,37.6,92.4,37.6L92.4,37.6z M114.3,37.6c-2.7,0-4.9-2.1-4.9-5.1c0-3,2.2-5.1,4.9-5.1
			c2.7,0,4.9,2.1,4.9,5.1C119.2,35.5,117,37.6,114.3,37.6z M162.4,37.6c-2.7,0-4.9-2.1-4.9-5.1c0-3,2.2-5.1,4.9-5.1s4.9,2.1,4.9,5.1
			C167.3,35.5,165.2,37.6,162.4,37.6z M128.2,35.9c-1.7,0-3.3,1.3-3.3,3.3c0,2,1.6,3.3,3.3,3.3c1.7,0,3.3-1.3,3.3-3.3
			C131.5,37.2,129.9,35.9,128.2,35.9L128.2,35.9z"/>
	</g>
</g>
</svg>
