<svg width="147" height="21" viewBox="0 0 147 21" fill="none" xmlns="http://www.w3.org/2000/svg">
<path d="M0.931673 16V14.3274L2.56538 13.7634L2.23475 14.2301V3.94168L2.70152 4.60294L0.931673 4.01948V2.34687L5.54106 2.24963H10.9284L10.9479 6.00327H8.96407L8.55564 4.33066L9.13911 4.66129H5.11319L5.61886 4.15562V8.35658L5.11319 7.88981H9.41139V10.3015H5.11319L5.61886 9.7958V14.2301L5.22988 13.7634L7.23312 14.3274V16H0.931673ZM15.8385 16.2528C14.866 16.2528 14.0103 16.0583 13.2712 15.6694C12.5322 15.2674 11.9617 14.6775 11.5597 13.8995C11.1578 13.1086 10.9568 12.1362 10.9568 10.9822C10.9568 9.78932 11.1708 8.77149 11.5986 7.92871C12.0265 7.08592 12.6359 6.43762 13.4268 5.98382C14.2178 5.53001 15.1578 5.3031 16.2469 5.3031C17.2972 5.3031 18.1529 5.50408 18.8142 5.90602C19.4754 6.30796 19.9552 6.8655 20.2534 7.57863C20.5646 8.27879 20.7202 9.06971 20.7202 9.95139C20.7202 10.1977 20.7072 10.4506 20.6813 10.7099C20.6683 10.9692 20.6294 11.235 20.5646 11.5073H13.6602V9.69856H17.7834L17.3166 10.0292C17.3296 9.52352 17.2972 9.09564 17.2194 8.74556C17.1416 8.38251 16.9989 8.11023 16.7915 7.92871C16.597 7.73422 16.3247 7.63697 15.9746 7.63697C15.5468 7.63697 15.2161 7.77312 14.9827 8.0454C14.7494 8.30472 14.5808 8.64832 14.4771 9.07619C14.3863 9.50407 14.3409 9.97084 14.3409 10.4765C14.3409 11.0989 14.4058 11.6629 14.5354 12.1686C14.6651 12.6742 14.8985 13.0827 15.2356 13.3938C15.5727 13.6921 16.0395 13.8412 16.6359 13.8412C17.0378 13.8412 17.4787 13.7699 17.9584 13.6272C18.4511 13.4716 18.9633 13.2512 19.4949 12.966L20.584 14.6775C19.8061 15.2091 19.0151 15.6045 18.2113 15.8639C17.4074 16.1232 16.6165 16.2528 15.8385 16.2528ZM25.9092 14.1135L25.6953 13.8412L27.0956 14.3274V16H21.4165V14.3274L22.8168 13.8412L22.6029 14.1135V2.89144L22.7974 3.08593L21.4165 2.6386V0.985449L25.9092 0.790959V14.1135ZM32.2973 14.1135L32.0833 13.8412L33.4837 14.3274V16H27.8046V14.3274L29.2049 13.8412L28.991 14.1135V7.55918L29.1855 7.75367L27.8046 7.28689V5.63374L32.2973 5.47814V14.1135ZM30.5858 4.25286C30.0282 4.25286 29.5744 4.09727 29.2244 3.78609C28.8872 3.46194 28.7187 3.00165 28.7187 2.40522C28.7187 1.78285 28.8937 1.32256 29.2438 1.02435C29.6068 0.713164 30.0607 0.557573 30.6052 0.557573C31.1368 0.557573 31.5777 0.706681 31.9277 1.0049C32.2778 1.30311 32.4529 1.76989 32.4529 2.40522C32.4529 3.01462 32.2713 3.47491 31.9083 3.78609C31.5582 4.09727 31.1174 4.25286 30.5858 4.25286ZM34.0307 20.4732V18.8006L35.6255 18.1977L35.217 18.7228V7.40359L35.5866 7.83146L34.0307 7.28689V5.63374L37.7843 5.4587L38.1538 7.15075L37.8037 6.95626C38.4002 6.41169 38.9836 6.00326 39.5542 5.73098C40.1376 5.44573 40.7405 5.3031 41.3629 5.3031C42.1279 5.3031 42.7956 5.50408 43.3661 5.90602C43.9366 6.295 44.384 6.87198 44.7081 7.63697C45.0323 8.40196 45.1943 9.34848 45.1943 10.4765C45.1943 11.7601 44.9739 12.8298 44.5331 13.6856C44.1052 14.5413 43.4958 15.1896 42.7049 15.6305C41.9269 16.0583 41.0193 16.2723 39.982 16.2723C39.6838 16.2723 39.3791 16.2464 39.0679 16.1945C38.7697 16.1556 38.4585 16.1037 38.1344 16.0389L38.5234 15.6888V18.7228L38.2122 18.2561L39.9237 18.8006V20.4732H34.0307ZM39.5347 13.9384C40.3516 13.9384 40.9285 13.6596 41.2657 13.1021C41.6028 12.5316 41.7713 11.7731 41.7713 10.8266C41.7713 10.1913 41.7 9.64021 41.5574 9.17344C41.4277 8.70666 41.2397 8.34362 40.9934 8.0843C40.747 7.82498 40.4358 7.69532 40.0598 7.69532C39.7616 7.69532 39.4569 7.7796 39.1457 7.94815C38.8345 8.10375 38.4974 8.33713 38.1344 8.64832L38.5234 7.81201V14.3468L38.1344 13.7245C38.666 13.8671 39.1328 13.9384 39.5347 13.9384ZM50.9947 16.2528C50.0222 16.2528 49.1665 16.0583 48.4274 15.6694C47.6883 15.2674 47.1178 14.6775 46.7159 13.8995C46.314 13.1086 46.113 12.1362 46.113 10.9822C46.113 9.78932 46.3269 8.77149 46.7548 7.92871C47.1827 7.08592 47.7921 6.43762 48.583 5.98382C49.3739 5.53001 50.3139 5.3031 51.4031 5.3031C52.4533 5.3031 53.3091 5.50408 53.9703 5.90602C54.6316 6.30796 55.1113 6.8655 55.4096 7.57863C55.7207 8.27879 55.8763 9.06971 55.8763 9.95139C55.8763 10.1977 55.8634 10.4506 55.8374 10.7099C55.8245 10.9692 55.7856 11.235 55.7207 11.5073H48.8164V9.69856H52.9395L52.4728 10.0292C52.4857 9.52352 52.4533 9.09564 52.3755 8.74556C52.2977 8.38251 52.1551 8.11023 51.9477 7.92871C51.7532 7.73422 51.4809 7.63697 51.1308 7.63697C50.7029 7.63697 50.3723 7.77312 50.1389 8.0454C49.9055 8.30472 49.737 8.64832 49.6332 9.07619C49.5425 9.50407 49.4971 9.97084 49.4971 10.4765C49.4971 11.0989 49.5619 11.6629 49.6916 12.1686C49.8212 12.6742 50.0546 13.0827 50.3917 13.3938C50.7289 13.6921 51.1956 13.8412 51.7921 13.8412C52.194 13.8412 52.6349 13.7699 53.1146 13.6272C53.6073 13.4716 54.1195 13.2512 54.6511 12.966L55.7402 14.6775C54.9622 15.2091 54.1713 15.6045 53.3674 15.8639C52.5635 16.1232 51.7726 16.2528 50.9947 16.2528ZM63.9812 16.2528C63.2292 16.2528 62.5614 16.0583 61.978 15.6694C61.4075 15.2674 60.9537 14.6775 60.6165 13.8995C60.2924 13.1216 60.1303 12.1686 60.1303 11.0405C60.1303 9.06971 60.6295 7.62401 61.6279 6.70343C62.6392 5.76988 64.0655 5.3031 65.9066 5.3031C66.14 5.3031 66.3799 5.30959 66.6263 5.32255C66.8856 5.33552 67.1449 5.36793 67.4042 5.4198L66.8207 5.76988V2.91089L67.0347 3.20262L65.5371 2.6386V0.985449L70.1076 0.790959V14.1913L69.7381 13.7439L71.294 14.3274V16L67.5404 16.175L67.1125 14.483L67.4626 14.5802C66.8921 15.1378 66.328 15.5592 65.7705 15.8444C65.213 16.1167 64.6165 16.2528 63.9812 16.2528ZM65.2843 13.8606C65.5695 13.8606 65.8678 13.7828 66.1789 13.6272C66.5031 13.4587 66.8402 13.2188 67.1903 12.9076L66.8207 13.8801V7.07295L67.2097 7.83146C66.6781 7.68884 66.2049 7.61752 65.79 7.61752C64.9861 7.61752 64.4156 7.89629 64.0785 8.45383C63.7413 9.01136 63.5728 9.76987 63.5728 10.7293C63.5728 11.3647 63.6376 11.9157 63.7673 12.3825C63.8969 12.8493 64.0914 13.2123 64.3507 13.4716C64.6101 13.731 64.9212 13.8606 65.2843 13.8606ZM76.8442 16.2528C75.8718 16.2528 75.016 16.0583 74.277 15.6694C73.5379 15.2674 72.9674 14.6775 72.5655 13.8995C72.1635 13.1086 71.9626 12.1362 71.9626 10.9822C71.9626 9.78932 72.1765 8.77149 72.6044 7.92871C73.0322 7.08592 73.6416 6.43762 74.4326 5.98382C75.2235 5.53001 76.1635 5.3031 77.2527 5.3031C78.3029 5.3031 79.1586 5.50408 79.8199 5.90602C80.4812 6.30796 80.9609 6.8655 81.2591 7.57863C81.5703 8.27879 81.7259 9.06971 81.7259 9.95139C81.7259 10.1977 81.7129 10.4506 81.687 10.7099C81.674 10.9692 81.6351 11.235 81.5703 11.5073H74.666V9.69856H78.7891L78.3223 10.0292C78.3353 9.52352 78.3029 9.09564 78.2251 8.74556C78.1473 8.38251 78.0047 8.11023 77.7972 7.92871C77.6027 7.73422 77.3304 7.63697 76.9804 7.63697C76.5525 7.63697 76.2219 7.77312 75.9885 8.0454C75.7551 8.30472 75.5865 8.64832 75.4828 9.07619C75.392 9.50407 75.3467 9.97084 75.3467 10.4765C75.3467 11.0989 75.4115 11.6629 75.5412 12.1686C75.6708 12.6742 75.9042 13.0827 76.2413 13.3938C76.5784 13.6921 77.0452 13.8412 77.6416 13.8412C78.0436 13.8412 78.4844 13.7699 78.9642 13.6272C79.4569 13.4716 79.969 13.2512 80.5006 12.966L81.5898 14.6775C80.8118 15.2091 80.0209 15.6045 79.217 15.8639C78.4131 16.1232 77.6222 16.2528 76.8442 16.2528ZM92.0674 16.2528C90.9912 16.2528 89.9993 15.9935 89.0917 15.4749C88.1971 14.9433 87.4775 14.1524 86.9329 13.1021C86.4013 12.0519 86.1355 10.7488 86.1355 9.19288C86.1355 7.68884 86.3948 6.39873 86.9134 5.32255C87.445 4.24638 88.1841 3.42304 89.1306 2.85254C90.0901 2.28204 91.2246 1.99679 92.5342 1.99679C93.2343 1.99679 93.941 2.08107 94.6541 2.24963C95.3802 2.41818 96.1581 2.6775 96.988 3.02758L96.7935 6.74232H94.8097L94.2651 4.52515L94.8486 5.03082C94.4337 4.87523 94.0447 4.75854 93.6817 4.68074C93.3186 4.60294 92.9815 4.56405 92.6703 4.56405C92.009 4.56405 91.4645 4.7326 91.0366 5.06972C90.6087 5.40683 90.2911 5.89305 90.0836 6.52839C89.8762 7.15075 89.7724 7.90926 89.7724 8.80391C89.7724 9.88008 89.9021 10.7747 90.1614 11.4879C90.4207 12.188 90.7902 12.7067 91.27 13.0438C91.7497 13.3809 92.2943 13.5494 92.9037 13.5494C93.3705 13.5494 93.8632 13.4522 94.3818 13.2577C94.9005 13.0632 95.4321 12.7715 95.9766 12.3825L97.2019 14.3079C96.3721 14.9692 95.5163 15.4619 94.6346 15.7861C93.753 16.0972 92.8972 16.2528 92.0674 16.2528ZM107.089 14.3663L106.642 13.705L108.276 14.3274V16L104.503 16.175L104.094 14.3274L104.289 14.3857C103.822 15.0081 103.29 15.4749 102.694 15.7861C102.11 16.0972 101.488 16.2528 100.827 16.2528C99.932 16.2528 99.206 15.9741 98.6484 15.4165C98.1039 14.846 97.8316 14.0681 97.8316 13.0827C97.8316 12.3566 97.9872 11.7731 98.2983 11.3323C98.6225 10.8785 99.0957 10.5478 99.7181 10.3404C100.34 10.1329 101.118 10.0292 102.052 10.0292H103.958L103.783 10.2237V9.23178C103.783 8.68721 103.653 8.29824 103.394 8.06485C103.148 7.8185 102.765 7.69532 102.246 7.69532C102.013 7.69532 101.754 7.71477 101.469 7.75367C101.196 7.79256 100.904 7.85739 100.593 7.94815L100.885 7.61752L100.593 9.11509H98.5706L98.415 6.06161C99.3615 5.80229 100.224 5.61429 101.002 5.49759C101.793 5.36793 102.512 5.3031 103.161 5.3031C104.457 5.3031 105.436 5.57539 106.097 6.11996C106.759 6.65156 107.089 7.48786 107.089 8.62887V14.3663ZM101.138 12.7131C101.138 13.128 101.235 13.4392 101.43 13.6467C101.624 13.8412 101.87 13.9384 102.169 13.9384C102.441 13.9384 102.726 13.8606 103.024 13.705C103.336 13.5494 103.627 13.329 103.9 13.0438L103.783 13.4911V11.4101L103.977 11.624H102.597C102.052 11.624 101.669 11.7083 101.449 11.8768C101.242 12.0454 101.138 12.3242 101.138 12.7131ZM112.386 8.25934C112.386 8.51866 112.516 8.72611 112.775 8.8817C113.035 9.03729 113.365 9.17344 113.767 9.29013C114.182 9.40682 114.623 9.53648 115.09 9.67911C115.557 9.82173 115.991 10.0097 116.393 10.2431C116.808 10.4635 117.145 10.7618 117.404 11.1378C117.663 11.5138 117.793 12 117.793 12.5964C117.793 13.4392 117.566 14.1329 117.112 14.6775C116.672 15.2091 116.069 15.611 115.304 15.8833C114.552 16.1426 113.702 16.2723 112.756 16.2723C112.185 16.2723 111.589 16.2204 110.967 16.1167C110.344 16.0259 109.709 15.8963 109.061 15.7277L109.197 12.6548H111.239L111.492 14.2885L111.219 13.8412C111.466 13.9319 111.738 13.9968 112.036 14.0357C112.334 14.0746 112.594 14.094 112.814 14.094C113.086 14.094 113.352 14.0681 113.612 14.0162C113.871 13.9514 114.078 13.8541 114.234 13.7245C114.39 13.5948 114.467 13.4263 114.467 13.2188C114.467 12.9465 114.338 12.7326 114.078 12.577C113.832 12.4214 113.501 12.2853 113.086 12.1686C112.685 12.0519 112.257 11.9287 111.803 11.799C111.349 11.6564 110.915 11.4684 110.5 11.235C110.098 10.9887 109.767 10.6645 109.508 10.2626C109.262 9.86063 109.138 9.33551 109.138 8.68721C109.138 7.88333 109.333 7.23503 109.722 6.74232C110.111 6.23665 110.642 5.86712 111.317 5.63374C112.004 5.40035 112.762 5.28366 113.592 5.28366C114.176 5.28366 114.779 5.33552 115.401 5.43925C116.036 5.53001 116.691 5.66615 117.365 5.84767L117.229 8.64832H115.168L114.817 7.15075L115.265 7.61752C114.681 7.48786 114.176 7.42303 113.748 7.42303C113.346 7.42303 113.015 7.49435 112.756 7.63697C112.51 7.7796 112.386 7.98705 112.386 8.25934ZM122.692 16.2528C121.706 16.2528 120.961 15.9611 120.455 15.3776C119.962 14.7812 119.716 13.8995 119.716 12.7326V7.30634L120.124 7.71477H118.316V5.98382L120.163 5.4198L119.716 5.98382V3.28042L123.022 2.6775V5.98382L122.692 5.55594H125.628L125.57 7.71477H122.692L123.022 7.30634V12.2853C123.022 12.8298 123.106 13.2253 123.275 13.4716C123.444 13.718 123.703 13.8412 124.053 13.8412C124.247 13.8412 124.461 13.8152 124.695 13.7634C124.941 13.6985 125.213 13.6143 125.512 13.5105L126.115 15.2804C124.935 15.9287 123.794 16.2528 122.692 16.2528ZM126.758 16V14.3274L128.237 13.8412L127.945 14.3079V7.30634L128.295 7.83146L126.758 7.28689V5.63374L130.512 5.4587L130.921 7.26744L130.512 7.1702C131.109 6.5608 131.692 6.10051 132.262 5.78933C132.833 5.46518 133.436 5.3031 134.071 5.3031C134.486 5.3031 134.933 5.36793 135.413 5.49759L135.238 9.46517H133.332L133.021 7.32579L133.313 7.94815C133.248 7.92222 133.177 7.90277 133.099 7.88981C133.034 7.87684 132.963 7.87036 132.885 7.87036C132.535 7.87036 132.185 7.98057 131.835 8.20099C131.498 8.42141 131.219 8.68721 130.998 8.9984L131.251 8.14264V14.3079L130.882 13.8412L132.749 14.3274V16H126.758ZM141.184 5.3031C142.792 5.3031 144.03 5.7634 144.899 6.68398C145.78 7.59159 146.221 8.89467 146.221 10.5932C146.221 11.7731 146.001 12.7844 145.56 13.6272C145.132 14.47 144.516 15.1183 143.712 15.5721C142.908 16.0259 141.949 16.2528 140.834 16.2528C139.239 16.2528 138.007 15.799 137.138 14.8914C136.283 13.9708 135.855 12.6613 135.855 10.9627C135.855 9.76987 136.062 8.75204 136.477 7.90926C136.905 7.06647 137.514 6.42466 138.305 5.98382C139.109 5.53001 140.069 5.3031 141.184 5.3031ZM141.048 7.61752C140.425 7.61752 139.978 7.87036 139.706 8.37603C139.433 8.86874 139.297 9.67911 139.297 10.8071C139.297 11.9352 139.427 12.7391 139.686 13.2188C139.958 13.6985 140.393 13.9384 140.989 13.9384C141.417 13.9384 141.761 13.8282 142.02 13.6078C142.279 13.3744 142.467 13.0243 142.584 12.5575C142.714 12.0778 142.779 11.4684 142.779 10.7293C142.779 9.61428 142.642 8.81687 142.37 8.33713C142.098 7.85739 141.657 7.61752 141.048 7.61752Z" fill="#2F3538"/>
</svg>
