<?xml version="1.0" encoding="utf-8"?>
<!-- Generator: Adobe Illustrator 26.4.1, SVG Export Plug-In . SVG Version: 6.00 Build 0)  -->
<svg version="1.1" id="Layer_1" xmlns="http://www.w3.org/2000/svg" xmlns:xlink="http://www.w3.org/1999/xlink" x="0px" y="0px"
	 viewBox="0 0 582 137.6" style="enable-background:new 0 0 582 137.6;" xml:space="preserve">
<style type="text/css">
	.st0{fill-rule:evenodd;clip-rule:evenodd;fill:#ED1C24;}
	.st1{fill:#BFD730;}
	.st2{fill:#46A41A;}
	.st3{fill:#BA141A;}
	.st4{fill-rule:evenodd;clip-rule:evenodd;fill:#191919;}
	.st5{fill:#191919;}
</style>
<g>
	<g>
		<path class="st0" d="M140.1,51.3h17.5c3.2,0,5.8,2.6,5.8,5.8c0,3.2-2.6,5.8-5.8,5.8h-17.5V51.3L140.1,51.3z M116.8,28h40.8
			c16.1,0,29.2,13.1,29.2,29.2s-13.1,29.2-29.2,29.2h-17.5v23.3h-23.3V28L116.8,28z"/>
		<path class="st1" d="M93.1,71.7h12.2l-6.1-20.4L93.1,71.7L93.1,71.7z M58.4,109.6V51.3H41V28h75.7v81.6l-4.5-14.8v0.3H86.1
			l-4.4,14.6L58.4,109.6L58.4,109.6z"/>
		<polygon class="st2" points="58.5,109.6 81.8,109.6 81.8,51.3 99.3,51.3 99.3,28 81.8,28 		"/>
		<polygon class="st3" points="116.8,109.6 140.1,109.6 116.8,28 		"/>
	</g>
	<g>
		<g>
			<path class="st4" d="M297.5,55.1c0.9-0.2,2.6-0.4,5-0.4c5.1,0,9,2,9,6.9c0,4.7-3.5,7.5-9.5,7.5c-1.8,0-3.3-0.1-4.5-0.5V55.1z
				 M292.8,86.3h4.7V72.4c1.2,0.3,2.7,0.4,4.3,0.4c4.9,0,8.9-1.3,11.5-3.8c1.9-1.8,2.9-4.4,2.9-7.6c0-3.1-1.3-5.7-3.2-7.4
				c-2.2-1.9-5.7-3-10.5-3c-4.1,0-7.3,0.3-9.7,0.7L292.8,86.3L292.8,86.3z"/>
			<path class="st4" d="M337.3,83.2c-8,0-12.9-6.5-12.9-14.1c0-7.8,4.5-14.7,13.1-14.7c8.5,0,13,7.1,13,14.2
				C350.4,77,345.4,83.2,337.3,83.2L337.3,83.2z M337.2,86.9c10,0,18.2-6.9,18.2-18.5c0-10.1-7.1-17.7-17.8-17.7
				c-10.4,0-18.2,7.6-18.2,18.5C319.5,79.4,326.8,86.9,337.2,86.9L337.2,86.9z"/>
			<path class="st4" d="M363.7,55.1c0.9-0.2,2.6-0.5,5.3-0.5c4.9,0,8.7,1.8,8.7,6.5c0,4-3.2,6.5-8.4,6.5h-5.6V55.1z M359,86.3h4.7
				V71.2h5.2c4.3,0.2,6.3,2.1,7.5,6.8c1,4.4,1.9,7.3,2.4,8.3h4.9c-0.8-1.5-1.6-4.9-2.9-9.9c-0.9-3.3-2.6-5.8-5.3-6.8v-0.1
				c3.7-1.1,6.9-4.2,6.9-8.9c0-2.7-1.1-5.1-2.9-6.6c-2.3-2-5.6-3-10.9-3c-3.5,0-7.2,0.3-9.7,0.8L359,86.3L359,86.3z"/>
			<polygon class="st4" points="396.8,86.3 401.6,86.3 401.6,55.2 413.7,55.2 413.7,51.3 384.8,51.3 384.8,55.2 396.8,55.2 			"/>
			<path class="st4" d="M416.5,51.3V71c0,11.6,6.1,15.9,13.8,15.9c8.4,0,14.7-4.7,14.7-16V51.3h-4.7v19.8c0,8.2-3.8,12-9.7,12
				c-5.4,0-9.3-3.7-9.3-12V51.3H416.5z"/>
			<path class="st4" d="M481.6,67.9H469v3.7h7.9v10.1c-1.3,0.6-3.7,1.1-7.2,1.1c-9.5,0-15.2-5.8-15.2-14.1c0-8.1,5.8-13.9,15.7-13.9
				c4.1,0,6.8,0.7,9,1.7l1.2-3.8c-1.7-0.8-5.4-1.8-10-1.8c-13.6,0-20.8,8.6-20.8,18c0,5.1,1.9,9.7,5.1,12.7c3.8,3.5,8.6,5,14.7,5
				c5.6,0,10.1-1.4,12.3-2.2V67.9H481.6z"/>
			<path class="st4" d="M494.6,71.5l4-10.6c0.7-2.1,1.3-3.9,1.8-5.8h0.1c0.6,1.8,1.1,3.6,1.9,5.8l4,10.5L494.6,71.5L494.6,71.5z
				 M507.5,75.2l4.2,11.2h5.1l-13.3-35h-5.8l-13.2,35h5l4-11.2H507.5z"/>
			<polygon class="st4" points="519.6,86.3 541,86.3 541,82.4 524.3,82.4 524.3,51.3 519.6,51.3 			"/>
		</g>
		<g>
			<rect x="242.4" y="51.3" class="st4" width="6.7" height="35"/>
			<path class="st4" d="M215.8,71.2l3.1-8.9c0.7-2,1.2-4.2,1.8-6.1h0.1c0.6,1.9,1.2,4,1.9,6.1l3.2,8.8L215.8,71.2L215.8,71.2z
				 M227.1,76.2l3.6,10.1h7.3l-12.7-35h-8.7l-12.4,35h7l3.4-10.1C214.6,76.2,227.1,76.2,227.1,76.2z"/>
			<path class="st5" d="M262.9,73h4.2c3.9,0.2,5.6,1.7,6.6,6.1c0.9,3.9,1.5,6,1.9,7.1h6.9c-0.6-1.5-1.4-4.5-2.4-8.4l-0.2-0.8
				c-0.8-3-2.2-5.2-4.1-6.5c3-1.5,5.8-4.5,5.8-9.1c0-2.9-1.2-5.6-3.2-7.3C276,52,272.4,51,267,51c-3.4,0-7.2,0.3-9.8,0.8l-0.8,0.1
				v34.4h6.5V73z M262.9,56.8c0.8-0.1,2.2-0.3,4.3-0.3c3.6,0,7.8,1,7.8,5.6c0,3.5-2.9,5.6-7.5,5.6h-4.7L262.9,56.8L262.9,56.8z"/>
		</g>
	</g>
</g>
</svg>
