<?xml version="1.0" encoding="utf-8"?>
<!-- Generator: Adobe Illustrator 26.4.1, SVG Export Plug-In . SVG Version: 6.00 Build 0)  -->
<svg version="1.1" id="Layer_1" xmlns="http://www.w3.org/2000/svg" xmlns:xlink="http://www.w3.org/1999/xlink" x="0px" y="0px"
	 viewBox="0 0 854.7 279.3" style="enable-background:new 0 0 854.7 279.3;" xml:space="preserve">
<style type="text/css">
	.st0{fill:#3587C8;}
	.st1{fill:#363D47;}
</style>
<g>
	<g>
		<g>
			<path class="st0" d="M138.8,53.5c-47.8,0-86.5,38.7-86.5,86.5c0,47.8,38.7,86.5,86.5,86.5c47.8,0,86.5-38.7,86.5-86.5
				C225.3,92.3,186.6,53.5,138.8,53.5z M182,183.9H96.2V96.4H182V183.9z"/>
			<path class="st1" d="M165.2,140c0,14.6-11.8,26.4-26.4,26.4c-14.6,0-26.4-11.8-26.4-26.4c0-14.6,11.8-26.4,26.4-26.4
				C153.4,113.6,165.2,125.5,165.2,140"/>
			<g>
				<g>
					<path class="st1" d="M332.8,125.1l-19.9,52.1c-1.2,3-2.7,4.6-4.6,4.8c-1.9,0.2-3.7,0.2-5.4-0.1c-1.7-0.3-3.2-1.8-4.5-4.6
						L278.6,125c0-5,2.5-7.5,7.4-7.5c3.1,0,5.1,0.9,6,2.6c0.9,1.7,5.5,15,13.7,39.8c8.2-24.8,12.8-38.1,13.8-39.7c1-1.7,3-2.6,6-2.7
						C330.3,117.5,332.8,120,332.8,125.1"/>
				</g>
				<g>
					<g>
						<path class="st1" d="M352.7,182.1c-5,0-7.6-2.5-7.6-7.5v-42c-5,0-7.3-2.4-7.2-7.2c0-5,2.5-7.6,7.5-7.7l7.4-0.1
							c4.9,0.1,7.4,2.6,7.4,7.5v49.5C360.1,179.6,357.5,182.1,352.7,182.1 M348.8,98.7c-1.2,0.6-2.1,1.5-2.7,2.7
							c-0.7,1.2-1,2.4-1,3.7c0,1.3,0.3,2.5,1,3.6c0.7,1.2,1.5,2.1,2.7,2.7c1.1,0.6,2.4,1,3.6,1c1.2,0,2.5-0.3,3.6-1
							c1.2-0.7,2.1-1.6,2.7-2.7c0.6-1.2,0.9-2.4,0.9-3.6c0-1.3-0.3-2.5-1-3.7c-0.6-1.2-1.6-2.1-2.7-2.7c-1.2-0.6-2.4-0.9-3.6-0.9
							C351.1,97.8,349.9,98.1,348.8,98.7"/>
					</g>
				</g>
				<g>
					<path class="st1" d="M409,132.6h-19.7c-5,0-7.5,1.7-7.5,5.1c0,3.2,2.5,4.8,7.6,4.8h4.8c14.7,0.2,22,6.9,22,19.9
						c-0.1,13.2-7.4,19.8-22,19.9l-19.9,0c-4.7,0-7.1-2.3-7.2-6.9c0-5.2,2.4-7.8,7.1-7.8H394c4.9,0,7.3-1.7,7.4-5.1
						c0-3.3-2.4-5-7.3-5h-4.7c-14.8,0.1-22.3-6.6-22.2-20c-0.1-13.1,7.2-19.6,22-19.6l19.7,0c4.9,0,7.4,2.5,7.4,7.4
						C416,130,413.6,132.5,409,132.6"/>
				</g>
				<g>
					<g>
						<path class="st1" d="M437.5,182.1c-5,0-7.6-2.5-7.6-7.5v-42c-5,0-7.2-2.4-7.1-7.2c0-5,2.6-7.6,7.5-7.7l7.3-0.1
							c4.9,0.1,7.3,2.6,7.3,7.5v49.5C444.9,179.6,442.3,182.1,437.5,182.1 M433.8,98.7c-1.2,0.6-2.1,1.5-2.7,2.7
							c-0.7,1.2-1,2.4-1,3.7c0,1.3,0.3,2.5,1,3.6c0.7,1.2,1.5,2.1,2.7,2.7c1.1,0.6,2.3,1,3.6,1c1.2,0,2.4-0.3,3.6-1
							c1.2-0.7,2.1-1.6,2.7-2.7c0.6-1.2,1-2.4,1-3.6c0-1.3-0.4-2.5-1-3.7c-0.7-1.2-1.6-2.1-2.7-2.7c-1.2-0.6-2.4-0.9-3.6-0.9
							C436.2,97.8,435,98.1,433.8,98.7"/>
					</g>
				</g>
				<g>
					<g>
						<path class="st1" d="M474.8,117.8h9.2c14.8,0,23.3,7.2,23.3,22.2v19.3c0,15.2-8.4,23.4-23.2,23.4H474
							c-14.6,0-21.6-8-21.6-22.9V140c0-14.9,7.1-22.2,21.8-22.2 M474,132.8c-4.9,0-6.7,2.3-6.7,7.2v19.6c0,5.1,1.9,8.1,6.7,8.1h9.9
							c5,0,8.3-3,8.3-8.1v-19.8c0-4.8-3.3-7-8.3-7H474z"/>
					</g>
				</g>
				<g>
					<path class="st1" d="M513,174.6v-49.5c0-4.9,2.4-7.4,7.4-7.4l24.6,0c14.7,0,22.1,7.6,22.1,22.9v34.2c0,5-2.5,7.5-7.4,7.5
						c-4.9,0-7.4-2.5-7.4-7.6v-34.5c0-5.1-2.5-7.6-7.5-7.6h-17.2v42c0,5-2.5,7.5-7.5,7.5C515.4,182.1,513,179.6,513,174.6"/>
				</g>
				<g>
					<path class="st1" d="M616.1,143.2c0.1,4.9-3.2,7.3-9.7,7.3h-19.8c-6.4-0.1-9.6-2.5-9.7-7.3c0.1-5,3.4-7.5,9.7-7.4h19.8
						C613,135.7,616.2,138.2,616.1,143.2"/>
				</g>
				<g>
					<g>
						<path class="st1" d="M624.4,175.2V105c0-4.9,2.6-7.4,7.5-7.4c4.9,0,7.5,2.5,7.5,7.6v12.5h17.5c14.7,0,22.4,7.5,22.4,22.7v19.4
							c0,14.9-7.7,22.8-22.5,22.8h-24.7c-4.8,0-7.7-2.9-7.7-8 M656.8,167.7c5,0,7.5-2.8,7.5-7.6v-19.9c0-5.1-2.5-7.4-7.5-7.4h-17.4
							v34.9H656.8z"/>
					</g>
				</g>
				<g>
					<g>
						<path class="st1" d="M709.2,117.8h8.5c14.8,0,21.4,7.2,21.4,22.2v19.3c0,15.2-6.6,23.4-21.3,23.4h-10c-14.7,0-21-8-21-22.9
							V140c0-14.9,6.4-22.2,21.2-22.2 M707.9,132.8c-4.9,0-6.1,2.3-6.1,7.2v19.6c0,5.1,1.3,8.1,6.1,8.1h9.9c5,0,6.4-3,6.4-8.1v-19.8
							c0-4.8-1.4-7-6.4-7H707.9z"/>
					</g>
				</g>
				<g>
					<path class="st1" d="M798.2,169.1l-15.1-19.4l15.1-19.4c3.3-3.8,3.1-7.3-0.5-10.6c-3.7-3.3-7.2-3.1-10.6,0.7l-13.4,17.2
						l-13.4-17.2c-3.3-3.8-6.9-4.1-10.6-0.7c-3.6,3.2-3.7,6.7-0.4,10.6l15.1,19.4l-15.1,19.4c-3.3,3.8-3.1,7.4,0.5,10.8
						c3.7,3.2,7.2,3,10.4-0.7l13.5-17.4l13.5,17.4c3.2,3.7,6.7,3.9,10.5,0.7C801.3,176.5,801.5,172.9,798.2,169.1"/>
				</g>
			</g>
		</g>
	</g>
</g>
</svg>
